<svg t="1600521986617" class="icon" viewBox="0 0 1024 1024" version="1.1" xmlns="http://www.w3.org/2000/svg" p-id="4430" width="200" height="200"><path d="M746.656 373.344h-39.616V294.08A198.176 198.176 0 0 0 508.96 96a198.176 198.176 0 0 0-198.08 198.08v79.264H271.2A79.456 79.456 0 0 0 192 452.576v396.16A79.456 79.456 0 0 0 271.232 928h475.424a79.456 79.456 0 0 0 79.264-79.232V452.576a79.456 79.456 0 0 0-79.264-79.232zM508.96 729.92a79.456 79.456 0 0 1-79.232-79.264 79.456 79.456 0 0 1 79.232-79.232 79.456 79.456 0 0 1 79.232 79.232 79.456 79.456 0 0 1-79.232 79.264z m122.816-356.576h-245.632V294.08a122.912 122.912 0 0 1 122.816-122.816 122.912 122.912 0 0 1 122.816 122.816v79.264z" p-id="4431"></path></svg>